<svg width="104" height="105" viewBox="0 0 104 105" fill="none" xmlns="http://www.w3.org/2000/svg">
<path d="M104 52.3594C104 81.0782 80.7188 104.359 52 104.359C23.2812 104.359 0 81.0782 0 52.3594C0 23.6406 23.2812 0.359375 52 0.359375C80.7188 0.359375 104 23.6406 104 52.3594ZM18.6587 52.3594C18.6587 70.7733 33.5861 85.7007 52 85.7007C70.4139 85.7007 85.3413 70.7733 85.3413 52.3594C85.3413 33.9455 70.4139 19.0181 52 19.0181C33.5861 19.0181 18.6587 33.9455 18.6587 52.3594Z" fill="#D9D9D9"/>
<path d="M52 9.68872C52 4.53627 56.2098 0.274525 61.2796 1.19403C68.2582 2.45976 74.9378 5.14608 80.8897 9.12296C89.441 14.8368 96.106 22.9581 100.042 32.4598C103.977 41.9616 105.007 52.4171 103.001 62.5041C100.994 72.5911 96.0419 81.8566 88.7696 89.1289C81.4972 96.4013 72.2317 101.354 62.1447 103.36C52.0577 105.367 41.6022 104.337 32.1005 100.401C22.5987 96.4654 14.4774 89.8004 8.76358 81.249C4.7867 75.2972 2.10038 68.6176 0.834651 61.6389C-0.0848505 56.5692 4.17689 52.3594 9.32935 52.3594C14.4818 52.3594 18.5325 56.6155 19.9555 61.5676C20.9014 64.8596 22.3541 68.004 24.2777 70.8828C27.9413 76.3658 33.1485 80.6392 39.2408 83.1627C45.3332 85.6862 52.037 86.3465 58.5046 85.06C64.9721 83.7736 70.913 80.5981 75.5759 75.9352C80.2387 71.2724 83.4142 65.3315 84.7007 58.8639C85.9871 52.3964 85.3269 45.6925 82.8034 39.6002C80.2798 33.5079 76.0064 28.3007 70.5234 24.6371C67.6446 22.7135 64.5002 21.2608 61.2082 20.3148C56.2561 18.8918 52 14.8412 52 9.68872Z" fill="#32B97C"/>
<path d="M52 9.68872C52 4.53627 56.2098 0.274537 61.2795 1.19403C67.7765 2.37239 74.0185 4.78272 79.6582 8.32501C87.9445 13.5297 94.594 20.9667 98.8427 29.7815C103.091 38.5962 104.767 48.4309 103.676 58.1551C102.934 64.7735 100.931 71.1579 97.8051 76.9742C95.3662 81.5129 89.4099 82.1511 85.3794 78.9414C81.3488 75.7316 80.8316 69.8788 82.8033 65.1186C83.9947 62.2425 84.7832 59.1997 85.1336 56.0755C85.8329 49.8405 84.7587 43.5347 82.0346 37.8829C79.3104 32.2311 75.0468 27.4626 69.7338 24.1255C67.0717 22.4533 64.2002 21.1746 61.2082 20.3148C56.2561 18.8918 52 14.8412 52 9.68872Z" fill="#AC72C1"/>
</svg>
