<svg width="49" height="33" viewBox="0 0 49 33" fill="none" xmlns="http://www.w3.org/2000/svg">
<circle cx="32.5" cy="16.5859" r="16" fill="#F16062" fill-opacity="0.5"/>
<path d="M27.2031 19.7266C29.0469 18.9766 30.8125 18.6016 32.5 18.6016C34.1875 18.6016 35.9375 18.9766 37.75 19.7266C39.5938 20.4453 40.5156 21.3984 40.5156 22.5859V24.6016H24.4844V22.5859C24.4844 21.3984 25.3906 20.4453 27.2031 19.7266ZM35.3125 15.4141C34.5312 16.1953 33.5938 16.5859 32.5 16.5859C31.4062 16.5859 30.4688 16.1953 29.6875 15.4141C28.9062 14.6328 28.5156 13.6953 28.5156 12.6016C28.5156 11.5078 28.9062 10.5703 29.6875 9.78906C30.4688 8.97656 31.4062 8.57031 32.5 8.57031C33.5938 8.57031 34.5312 8.97656 35.3125 9.78906C36.0938 10.5703 36.4844 11.5078 36.4844 12.6016C36.4844 13.6953 36.0938 14.6328 35.3125 15.4141Z" fill="#FBFBFB"/>
<circle cx="16.5" cy="16.5859" r="16" fill="#F16062"/>
<path d="M11.2031 19.7266C13.0469 18.9766 14.8125 18.6016 16.5 18.6016C18.1875 18.6016 19.9375 18.9766 21.75 19.7266C23.5938 20.4453 24.5156 21.3984 24.5156 22.5859V24.6016H8.48438V22.5859C8.48438 21.3984 9.39062 20.4453 11.2031 19.7266ZM19.3125 15.4141C18.5312 16.1953 17.5938 16.5859 16.5 16.5859C15.4062 16.5859 14.4688 16.1953 13.6875 15.4141C12.9062 14.6328 12.5156 13.6953 12.5156 12.6016C12.5156 11.5078 12.9062 10.5703 13.6875 9.78906C14.4688 8.97656 15.4062 8.57031 16.5 8.57031C17.5938 8.57031 18.5312 8.97656 19.3125 9.78906C20.0938 10.5703 20.4844 11.5078 20.4844 12.6016C20.4844 13.6953 20.0938 14.6328 19.3125 15.4141Z" fill="#FBFBFB"/>
</svg>
