<svg width="49" height="33" viewBox="0 0 49 33" fill="none" xmlns="http://www.w3.org/2000/svg">
<circle cx="32.5" cy="16.1465" r="16" fill="#6186D3" fill-opacity="0.5"/>
<path d="M27.2031 19.2871C29.0469 18.5371 30.8125 18.1621 32.5 18.1621C34.1875 18.1621 35.9375 18.5371 37.75 19.2871C39.5938 20.0059 40.5156 20.959 40.5156 22.1465V24.1621H24.4844V22.1465C24.4844 20.959 25.3906 20.0059 27.2031 19.2871ZM35.3125 14.9746C34.5312 15.7559 33.5938 16.1465 32.5 16.1465C31.4062 16.1465 30.4688 15.7559 29.6875 14.9746C28.9062 14.1934 28.5156 13.2559 28.5156 12.1621C28.5156 11.0684 28.9062 10.1309 29.6875 9.34961C30.4688 8.53711 31.4062 8.13086 32.5 8.13086C33.5938 8.13086 34.5312 8.53711 35.3125 9.34961C36.0938 10.1309 36.4844 11.0684 36.4844 12.1621C36.4844 13.2559 36.0938 14.1934 35.3125 14.9746Z" fill="#FBFBFB"/>
<circle cx="16.5" cy="16.1465" r="16" fill="#6186D3"/>
<path d="M11.2031 19.2871C13.0469 18.5371 14.8125 18.1621 16.5 18.1621C18.1875 18.1621 19.9375 18.5371 21.75 19.2871C23.5938 20.0059 24.5156 20.959 24.5156 22.1465V24.1621H8.48438V22.1465C8.48438 20.959 9.39062 20.0059 11.2031 19.2871ZM19.3125 14.9746C18.5312 15.7559 17.5938 16.1465 16.5 16.1465C15.4062 16.1465 14.4688 15.7559 13.6875 14.9746C12.9062 14.1934 12.5156 13.2559 12.5156 12.1621C12.5156 11.0684 12.9062 10.1309 13.6875 9.34961C14.4688 8.53711 15.4062 8.13086 16.5 8.13086C17.5938 8.13086 18.5312 8.53711 19.3125 9.34961C20.0938 10.1309 20.4844 11.0684 20.4844 12.1621C20.4844 13.2559 20.0938 14.1934 19.3125 14.9746Z" fill="#FBFBFB"/>
</svg>
