<svg width="49" height="33" viewBox="0 0 49 33" fill="none" xmlns="http://www.w3.org/2000/svg">
<circle cx="32.5" cy="16.293" r="16" fill="#32B97C" fill-opacity="0.5"/>
<path d="M27.2031 19.4336C29.0469 18.6836 30.8125 18.3086 32.5 18.3086C34.1875 18.3086 35.9375 18.6836 37.75 19.4336C39.5938 20.1523 40.5156 21.1055 40.5156 22.293V24.3086H24.4844V22.293C24.4844 21.1055 25.3906 20.1523 27.2031 19.4336ZM35.3125 15.1211C34.5312 15.9023 33.5938 16.293 32.5 16.293C31.4062 16.293 30.4688 15.9023 29.6875 15.1211C28.9062 14.3398 28.5156 13.4023 28.5156 12.3086C28.5156 11.2148 28.9062 10.2773 29.6875 9.49609C30.4688 8.68359 31.4062 8.27734 32.5 8.27734C33.5938 8.27734 34.5312 8.68359 35.3125 9.49609C36.0938 10.2773 36.4844 11.2148 36.4844 12.3086C36.4844 13.4023 36.0938 14.3398 35.3125 15.1211Z" fill="#FBFBFB"/>
<circle cx="16.5" cy="16.293" r="16" fill="#32B97C"/>
<path d="M11.2031 19.4336C13.0469 18.6836 14.8125 18.3086 16.5 18.3086C18.1875 18.3086 19.9375 18.6836 21.75 19.4336C23.5938 20.1523 24.5156 21.1055 24.5156 22.293V24.3086H8.48438V22.293C8.48438 21.1055 9.39062 20.1523 11.2031 19.4336ZM19.3125 15.1211C18.5312 15.9023 17.5938 16.293 16.5 16.293C15.4062 16.293 14.4688 15.9023 13.6875 15.1211C12.9062 14.3398 12.5156 13.4023 12.5156 12.3086C12.5156 11.2148 12.9062 10.2773 13.6875 9.49609C14.4688 8.68359 15.4062 8.27734 16.5 8.27734C17.5938 8.27734 18.5312 8.68359 19.3125 9.49609C20.0938 10.2773 20.4844 11.2148 20.4844 12.3086C20.4844 13.4023 20.0938 14.3398 19.3125 15.1211Z" fill="#FBFBFB"/>
</svg>
