<svg width="49" height="33" viewBox="0 0 49 33" fill="none" xmlns="http://www.w3.org/2000/svg">
<circle cx="32.5" cy="16.4395" r="16" fill="#AC72C1" fill-opacity="0.5"/>
<path d="M27.2031 19.5801C29.0469 18.8301 30.8125 18.4551 32.5 18.4551C34.1875 18.4551 35.9375 18.8301 37.75 19.5801C39.5938 20.2988 40.5156 21.252 40.5156 22.4395V24.4551H24.4844V22.4395C24.4844 21.252 25.3906 20.2988 27.2031 19.5801ZM35.3125 15.2676C34.5312 16.0488 33.5938 16.4395 32.5 16.4395C31.4062 16.4395 30.4688 16.0488 29.6875 15.2676C28.9062 14.4863 28.5156 13.5488 28.5156 12.4551C28.5156 11.3613 28.9062 10.4238 29.6875 9.64258C30.4688 8.83008 31.4062 8.42383 32.5 8.42383C33.5938 8.42383 34.5312 8.83008 35.3125 9.64258C36.0938 10.4238 36.4844 11.3613 36.4844 12.4551C36.4844 13.5488 36.0938 14.4863 35.3125 15.2676Z" fill="#FBFBFB"/>
<circle cx="16.5" cy="16.4395" r="16" fill="#AC72C1"/>
<path d="M11.2031 19.5801C13.0469 18.8301 14.8125 18.4551 16.5 18.4551C18.1875 18.4551 19.9375 18.8301 21.75 19.5801C23.5938 20.2988 24.5156 21.252 24.5156 22.4395V24.4551H8.48438V22.4395C8.48438 21.252 9.39062 20.2988 11.2031 19.5801ZM19.3125 15.2676C18.5312 16.0488 17.5938 16.4395 16.5 16.4395C15.4062 16.4395 14.4688 16.0488 13.6875 15.2676C12.9062 14.4863 12.5156 13.5488 12.5156 12.4551C12.5156 11.3613 12.9062 10.4238 13.6875 9.64258C14.4688 8.83008 15.4062 8.42383 16.5 8.42383C17.5938 8.42383 18.5312 8.83008 19.3125 9.64258C20.0938 10.4238 20.4844 11.3613 20.4844 12.4551C20.4844 13.5488 20.0938 14.4863 19.3125 15.2676Z" fill="#FBFBFB"/>
</svg>
