<svg width="48" height="49" viewBox="0 0 48 49" fill="none" xmlns="http://www.w3.org/2000/svg">
<circle cx="24" cy="24.5" r="24" fill="#E5E5E5"/>
<path d="M18.7031 27.6406C20.5469 26.8906 22.3125 26.5156 24 26.5156C25.6875 26.5156 27.4375 26.8906 29.25 27.6406C31.0938 28.3594 32.0156 29.3125 32.0156 30.5V32.5156H15.9844V30.5C15.9844 29.3125 16.8906 28.3594 18.7031 27.6406ZM26.8125 23.3281C26.0312 24.1094 25.0938 24.5 24 24.5C22.9062 24.5 21.9688 24.1094 21.1875 23.3281C20.4062 22.5469 20.0156 21.6094 20.0156 20.5156C20.0156 19.4219 20.4062 18.4844 21.1875 17.7031C21.9688 16.8906 22.9062 16.4844 24 16.4844C25.0938 16.4844 26.0312 16.8906 26.8125 17.7031C27.5938 18.4844 27.9844 19.4219 27.9844 20.5156C27.9844 21.6094 27.5938 22.5469 26.8125 23.3281Z" fill="#FBFBFB"/>
</svg>
